<?xml version="1.0" encoding="utf-8"?>
<!-- Generator: Adobe Illustrator 21.1.0, SVG Export Plug-In . SVG Version: 6.00 Build 0)  -->
<svg version="1.1" id="Layer_1" xmlns="http://www.w3.org/2000/svg" xmlns:xlink="http://www.w3.org/1999/xlink" x="0px" y="0px"
	 width="652px" height="237.5px" viewBox="0 0 652 237.5" style="enable-background:new 0 0 652 237.5;" xml:space="preserve">
<style type="text/css">
	.st0{fill:#004E9A;}
	.st1{fill:#008453;}
</style>
<g>
	<path class="st0" d="M484.1,178.3h-2.7v21.8h2.7c3,0,5.5-1,7.7-3.2c1.1-1.1,1.9-2.3,2.4-3.5c0.5-1.2,0.8-2.7,0.8-4.2
		c0-3-1-5.5-3.2-7.7C489.6,179.3,487.1,178.3,484.1,178.3z"/>
	<path class="st0" d="M201.6,179.5c-0.4-0.4-0.9-0.7-1.4-0.9c-0.5-0.2-1.1-0.3-1.7-0.3h-4.4v8.8h4.4c0.6,0,1.2-0.1,1.7-0.3
		c0.6-0.2,1-0.5,1.4-0.9c0.4-0.4,0.7-0.9,1-1.4c0.2-0.5,0.3-1.1,0.3-1.7c0-0.6-0.1-1.2-0.3-1.7C202.3,180.4,202,179.9,201.6,179.5z"
		/>
	<path class="st0" d="M243.6,178.3c-1.5,0-2.9,0.3-4.2,0.8c-1.2,0.5-2.4,1.3-3.5,2.4c-1.1,1.1-1.9,2.2-2.4,3.5
		c-0.5,1.2-0.8,2.6-0.8,4.2c0,3.1,1,5.6,3.2,7.7c2.1,2.2,4.7,3.2,7.7,3.2c3,0,5.6-1,7.7-3.2c2.1-2.1,3.2-4.7,3.2-7.7
		c0-3-1-5.5-3.2-7.7C249.1,179.3,246.6,178.3,243.6,178.3z"/>
	<path class="st0" d="M626.8,0H25.2C11.3,0,0,11.3,0,25.2v187.2c0,13.9,11.3,25.2,25.2,25.2h601.6c13.9,0,25.2-11.3,25.2-25.2V25.2
		C652,11.3,640.7,0,626.8,0z M168.7,192.5c-2.5,2.5-5.5,3.7-9,3.7h-2.7v7.6c0,1-0.4,2-1.1,2.7c-0.7,0.7-1.7,1.1-2.7,1.1
		c-1,0-2-0.4-2.7-1.1c-0.7-0.7-1.1-1.6-1.1-2.7v-29.4c0-0.5,0.1-1,0.3-1.5c0.2-0.4,0.4-0.8,0.8-1.2c0.4-0.4,0.8-0.6,1.2-0.8
		c0.5-0.2,1-0.3,1.5-0.3h6.5c1.1,0,2.3,0.2,3.4,0.5c1.1,0.3,2.1,0.8,3.1,1.3c0.9,0.6,1.8,1.2,2.6,2c0.8,0.8,1.5,1.7,2,2.6
		c0.6,1,1,2,1.3,3c0.3,1.1,0.5,2.2,0.5,3.4C172.5,186.9,171.2,190,168.7,192.5z M211.8,205.4c-0.2,0.4-0.5,0.8-0.8,1.2
		c-0.4,0.4-0.8,0.6-1.2,0.8c-0.5,0.2-0.9,0.3-1.5,0.3c-1.3,0-2.4-0.6-3.2-1.8l-7-11.3h-3.9v9.3c0,1-0.4,2-1.1,2.7
		c-1.4,1.4-3.9,1.4-5.4,0c-0.7-0.7-1.1-1.7-1.1-2.7v-29.4c0-0.5,0.1-1,0.3-1.5c0.2-0.4,0.4-0.8,0.8-1.2c0.4-0.4,0.8-0.6,1.2-0.8
		c0.4-0.2,0.9-0.3,1.5-0.3h8.2c1.6,0,3.2,0.3,4.7,0.9c1.4,0.6,2.7,1.5,3.8,2.6c1.1,1.1,1.9,2.4,2.6,3.8c0.6,1.4,1,3,1,4.6
		c0,1.1-0.1,2.1-0.4,3.1c-0.3,1-0.7,2-1.2,2.9c-0.5,0.9-1.2,1.7-2,2.5c-0.4,0.4-0.9,0.8-1.3,1.1l6,9.5c0.4,0.7,0.6,1.4,0.6,2.1
		C212.1,204.4,212,204.9,211.8,205.4z M256.7,202.3c-3.6,3.6-8,5.4-13.1,5.4c-5.1,0-9.5-1.8-13.1-5.4c-3.6-3.6-5.4-8-5.4-13.1
		c0-5.1,1.8-9.5,5.4-13.1c3.6-3.6,8-5.4,13.1-5.4c5.1,0,9.5,1.8,13.1,5.4c1.8,1.8,3.2,3.8,4.1,6c0.9,2.2,1.4,4.5,1.4,7.1
		C262.1,194.2,260.3,198.6,256.7,202.3z M298.2,177.1c-0.7,0.7-1.7,1.1-2.7,1.1h-6.8v25.6c0,1-0.4,2-1.1,2.7
		c-0.7,0.7-1.6,1.1-2.7,1.1c-1,0-2-0.4-2.7-1.1c-0.7-0.7-1.1-1.7-1.1-2.7v-25.6h-6.8c-1,0-1.9-0.4-2.7-1.1c-0.7-0.7-1.1-1.7-1.1-2.7
		c0-1,0.4-2,1.1-2.7c0.7-0.7,1.7-1.1,2.7-1.1h21.2c1,0,2,0.4,2.7,1.1c0.7,0.7,1.1,1.7,1.1,2.7C299.3,175.5,298.9,176.4,298.2,177.1z
		 M330,185.4c1,0,2,0.4,2.7,1.1c0.7,0.7,1.1,1.7,1.1,2.7c0,1-0.4,2-1.1,2.7c-0.7,0.7-1.7,1.1-2.7,1.1h-10.9v7.1h15.8
		c1,0,2,0.4,2.7,1.1c0.7,0.7,1.1,1.7,1.1,2.7c0,1-0.4,2-1.1,2.7c-0.7,0.7-1.7,1.1-2.7,1.1h-19.6c-0.5,0-1-0.1-1.5-0.3
		c-0.5-0.2-0.9-0.5-1.2-0.8c-0.3-0.3-0.6-0.7-0.8-1.2c-0.2-0.5-0.3-0.9-0.3-1.5v-29.4c0-0.5,0.1-1,0.3-1.5c0.2-0.4,0.4-0.8,0.8-1.2
		s0.8-0.6,1.2-0.8c0.5-0.2,1-0.3,1.5-0.3h19.6c1,0,2,0.4,2.7,1.1c0.7,0.7,1.1,1.7,1.1,2.7c0,1-0.4,2-1.1,2.7
		c-0.7,0.7-1.7,1.1-2.7,1.1h-15.8v7.1H330z M359.9,196.9c2.1,2.2,4.7,3.2,7.7,3.2c2.6,0,4.8-0.8,6.8-2.4c0.7-0.5,1.4-0.7,2.2-0.7
		c0.6,0,1.1,0.1,1.5,0.3c0.4,0.2,0.8,0.4,1.1,0.8c0.4,0.4,0.6,0.8,0.9,1.2c0.2,0.5,0.3,1,0.3,1.5c0,1-0.4,1.9-1.1,2.7
		c-3.6,2.9-7.5,4.3-11.8,4.3c-5.1,0-9.5-1.8-13.1-5.4c-3.6-3.6-5.4-8-5.4-13.1c0-5.1,1.8-9.5,5.4-13.1c3.6-3.6,8-5.4,13.1-5.4
		c4.4,0,8.3,1.4,11.8,4.3c0.6,0.6,1.2,1.4,1.2,2.7c0,0.5-0.1,1-0.3,1.5c-0.2,0.4-0.5,0.8-0.8,1.2c-0.3,0.3-0.7,0.6-1.2,0.8
		c-1.4,0.5-2.8,0.3-4-0.7c-0.9-0.7-1.9-1.3-3-1.7c-1.1-0.4-2.3-0.6-3.6-0.6c-3,0-5.6,1-7.7,3.2c-2.1,2.1-3.2,4.6-3.2,7.7
		C356.7,192.2,357.7,194.8,359.9,196.9z M418.9,177.2c-0.7,0.7-1.6,1.1-2.7,1.1h-6.8v25.6c0,1-0.4,2-1.1,2.7
		c-0.7,0.7-1.7,1.1-2.7,1.1c-1,0-2-0.4-2.7-1.1c-0.7-0.7-1.1-1.6-1.1-2.7v-25.6H395c-1,0-2-0.4-2.7-1.1c-0.7-0.7-1.1-1.7-1.1-2.7
		c0-1,0.4-2,1.1-2.7c0.7-0.7,1.7-1.1,2.7-1.1h21.2c1,0,2,0.4,2.7,1.1c0.7,0.7,1.1,1.6,1.1,2.7C420.1,175.5,419.7,176.4,418.9,177.2z
		 M451.5,185.4c1,0,2,0.4,2.7,1.1c0.7,0.7,1.1,1.7,1.1,2.7c0,1-0.4,2-1.1,2.7c-0.7,0.7-1.7,1.1-2.7,1.1h-10.9v7.1h15.8
		c1,0,2,0.4,2.7,1.1c0.7,0.7,1.1,1.7,1.1,2.7c0,1-0.4,2-1.1,2.7c-0.7,0.7-1.7,1.1-2.7,1.1h-19.6c-0.5,0-1-0.1-1.5-0.3
		c-0.5-0.2-0.9-0.5-1.2-0.8c-0.3-0.3-0.6-0.7-0.8-1.2c-0.2-0.5-0.3-0.9-0.3-1.5v-29.4c0-0.5,0.1-1,0.3-1.5c0.2-0.4,0.4-0.8,0.8-1.2
		c0.4-0.4,0.8-0.6,1.2-0.8c0.5-0.2,1-0.3,1.5-0.3h19.6c1,0,2,0.4,2.7,1.1c0.7,0.7,1.1,1.7,1.1,2.7c0,1-0.4,2-1.1,2.7
		c-0.7,0.7-1.7,1.1-2.7,1.1h-15.8v7.1H451.5z M497.1,202.3c-3.6,3.6-8,5.4-13.1,5.4h-6.5c-0.5,0-1-0.1-1.5-0.3
		c-0.4-0.2-0.9-0.5-1.2-0.8c-0.3-0.3-0.6-0.7-0.8-1.2c-0.2-0.5-0.3-1-0.3-1.5v-29.4c0-0.5,0.1-1,0.3-1.5c0.2-0.4,0.5-0.9,0.8-1.2
		c0.3-0.3,0.7-0.6,1.2-0.8c0.5-0.2,1-0.3,1.5-0.3h6.5c5.1,0,9.5,1.8,13.1,5.4c1.8,1.8,3.2,3.8,4.1,6c0.9,2.2,1.4,4.5,1.4,7.1
		C502.5,194.2,500.7,198.6,497.1,202.3z M630.9,115.6c0,13.9-11.3,25.2-25.2,25.2H46.4c-13.9,0-25.2-11.3-25.2-25.2V46.4
		c0-13.9,11.2-25.1,25.1-25.1h559.4c13.9,0,25.2,11.3,25.2,25.2V115.6z"/>
	<path class="st0" d="M163.3,179.8c-0.5-0.5-1-0.8-1.7-1.1c-0.6-0.3-1.3-0.4-2-0.4h-2.7v10.4h2.7c0.7,0,1.4-0.1,2-0.4
		c0.6-0.3,1.2-0.6,1.7-1.1c0.5-0.5,0.9-1,1.1-1.7c0.3-0.6,0.4-1.3,0.4-2c0-0.7-0.1-1.4-0.4-2C164.2,180.8,163.8,180.2,163.3,179.8z"
		/>
</g>
<g>
	<g>
		<path class="st1" d="M192.1,95.7c-0.6,0-1.1-0.5-1.1-1.1V54.3c0-0.6,0.5-1.1,1.1-1.1c0.6,0,1.1,0.5,1.1,1.1v40.3
			C193.2,95.2,192.7,95.7,192.1,95.7z"/>
	</g>
	<g>
		<path class="st0" d="M104.2,68.7v0.5c1.3-1.1,2.8-1.9,4.3-2.4c1.6-0.6,3.2-0.8,5-0.8c0.8,0,1.6,0.1,2.5,0.2
			c0.9,0.1,1.7,0.3,2.5,0.6c0.7,0.3,1.4,0.7,1.9,1.1c0.5,0.5,0.7,1.1,0.7,1.9c0,0.4-0.1,0.7-0.2,1.1c-0.1,0.3-0.3,0.6-0.6,0.9
			c-0.2,0.3-0.5,0.5-0.9,0.6c-0.3,0.1-0.7,0.2-1.1,0.2c-0.3,0-0.7-0.1-1.2-0.3c-1.1-0.4-2.3-0.7-3.6-0.7c-1.3,0-2.5,0.2-3.6,0.7
			c-1.1,0.5-2.1,1.1-3,2c-0.8,0.8-1.5,1.8-2,3c-0.5,1.1-0.7,2.3-0.7,3.6v12.1c0,0.8-0.3,1.4-0.8,2c-0.5,0.5-1.2,0.8-1.9,0.8
			c-0.8,0-1.4-0.3-2-0.8c-0.5-0.5-0.8-1.2-0.8-2V68.7c0-0.8,0.3-1.4,0.8-2c0.5-0.5,1.2-0.8,2-0.8c0.8,0,1.4,0.3,1.9,0.8
			C103.9,67.3,104.2,68,104.2,68.7"/>
		<path class="st0" d="M92.3,68.7c0-0.8-0.3-1.4-0.8-1.9C91,66.2,90.3,66,89.6,66c-0.8,0-1.4,0.3-2,0.8c-0.5,0.5-0.8,1.2-0.8,1.9
			v0.5c-0.2-0.1-0.4-0.3-0.6-0.4c-1.1-0.8-2.3-1.5-3.6-2c-0.1,0-0.1,0-0.1-0.1l0,0c-1.6-0.6-3.2-0.8-5-0.8c-4.1,0-7.6,1.4-10.5,4.3
			c-2.9,2.9-4.3,6.4-4.3,10.5c0,4.1,1.5,7.6,4.3,10.5c2.9,2.9,6.4,4.3,10.5,4.3c1.8,0,3.4-0.3,5-0.8c1.6-0.6,3-1.4,4.3-2.4v0.5
			c0,0.8,0.3,1.4,0.8,1.9c0.5,0.5,1.2,0.8,2,0.8c0.8,0,1.4-0.3,1.9-0.8c0.5-0.5,0.8-1.2,0.8-1.9V80.8c0,0,0,0,0,0v0V68.7z M86,84.4
			c-0.5,1.1-1.1,2.1-2,3c-0.8,0.9-1.8,1.5-3,2c-1.1,0.5-2.3,0.7-3.6,0.7c-1.3,0-2.5-0.2-3.7-0.7c-1.1-0.5-2.1-1.2-2.9-2
			c-0.8-0.8-1.5-1.8-2-3c-0.5-1.1-0.7-2.3-0.7-3.6c0-1.3,0.2-2.5,0.7-3.6c0.5-1.1,1.1-2.1,2-3c0.8-0.8,1.8-1.5,2.9-2
			c1.1-0.5,2.4-0.7,3.7-0.7c1.3,0,2.5,0.3,3.6,0.7c1.1,0.5,2.1,1.2,3,2c0.8,0.8,1.5,1.8,2,3c0.5,1.1,0.7,2.3,0.7,3.6
			C86.8,82.1,86.5,83.3,86,84.4z"/>
		<path class="st0" d="M171,68.7c0-0.8-0.3-1.4-0.8-1.9c-0.5-0.5-1.2-0.8-1.9-0.8c-0.8,0-1.4,0.3-2,0.8c-0.5,0.5-0.8,1.2-0.8,1.9
			v0.5c-0.2-0.2-0.4-0.3-0.6-0.5c-1.1-0.8-2.3-1.4-3.5-1.9c-0.1,0-0.1,0-0.2-0.1l0,0c-1.6-0.6-3.2-0.8-5-0.8
			c-4.1,0-7.6,1.4-10.5,4.3c-2.9,2.9-4.3,6.4-4.3,10.5c0,4.1,1.4,7.6,4.3,10.5c2.9,2.9,6.4,4.3,10.5,4.3c1.8,0,3.4-0.3,5-0.8
			c1.6-0.6,3-1.4,4.3-2.4v0.5c0,0.8,0.3,1.4,0.8,1.9c0.5,0.5,1.2,0.8,2,0.8c0.8,0,1.4-0.3,1.9-0.8c0.5-0.5,0.8-1.2,0.8-1.9V80.8
			c0,0,0,0,0,0v0V68.7z M164.7,84.4c-0.5,1.1-1.1,2.1-2,3c-0.8,0.9-1.8,1.5-3,2c-1.1,0.5-2.3,0.7-3.6,0.7c-1.3,0-2.5-0.2-3.7-0.7
			c-1.1-0.5-2.1-1.2-2.9-2c-0.8-0.8-1.5-1.8-2-3c-0.5-1.1-0.7-2.3-0.7-3.6c0-1.3,0.2-2.5,0.7-3.6c0.5-1.1,1.1-2.1,2-3
			c0.8-0.8,1.8-1.5,2.9-2c1.1-0.5,2.4-0.7,3.7-0.7c1.3,0,2.5,0.3,3.6,0.7c1.1,0.5,2.1,1.2,3,2c0.8,0.8,1.5,1.8,2,3
			c0.5,1.1,0.7,2.3,0.7,3.6C165.4,82.1,165.2,83.3,164.7,84.4z"/>
		<path class="st0" d="M126,65.9v-10c0-0.8,0.3-1.4,0.8-1.9c0.5-0.5,1.2-0.8,2-0.8c0.8,0,1.4,0.3,1.9,0.8c0.5,0.5,0.8,1.2,0.8,1.9
			v10v5.5v13.4c0,3.5,1.8,5.3,5.3,5.3c0.8,0,1.4,0.3,1.9,0.8c0.5,0.5,0.8,1.1,0.8,1.8c0,0.8-0.3,1.5-0.8,2.1
			c-0.5,0.5-1.2,0.8-1.9,0.8c-7.2,0-10.8-3.6-10.8-10.8V71.5V65.9z"/>
	</g>
	<g>
		<path class="st1" d="M228,95.7c-3.6,0-6.6-1.1-9.3-3.3v13.2c0,0.8-0.3,1.5-0.8,2c-0.5,0.5-1.2,0.8-2,0.8c-0.8,0-1.5-0.3-2-0.8
			c-0.5-0.5-0.8-1.2-0.8-2V80.8c0-4.1,1.4-7.6,4.4-10.5c2.9-2.9,6.4-4.3,10.5-4.3c4.1,0,7.6,1.4,10.5,4.3c1.4,1.4,2.5,3,3.3,4.8
			c0.7,1.8,1.1,3.7,1.1,5.7c0,4.1-1.5,7.6-4.3,10.5c-1.5,1.5-3.1,2.6-4.8,3.3C232,95.3,230.1,95.7,228,95.7z M218.7,80.8
			c0,1.3,0.2,2.5,0.7,3.6c0.5,1.1,1.1,2.1,2,3c0.8,0.8,1.8,1.5,2.9,2c1.1,0.5,2.4,0.7,3.7,0.7c1.3,0,2.5-0.2,3.6-0.7
			c1.1-0.5,2.1-1.2,3-2c0.8-0.8,1.5-1.8,2-3c0.5-1.1,0.7-2.3,0.7-3.6s-0.2-2.5-0.7-3.6c-0.5-1.1-1.1-2.1-2-3c-0.8-0.9-1.8-1.5-3-2
			c-1.1-0.5-2.3-0.7-3.6-0.7c-1.3,0-2.5,0.2-3.7,0.7c-1.1,0.5-2.1,1.2-2.9,2c-0.8,0.8-1.5,1.8-2,3C219,78.4,218.7,79.6,218.7,80.8z"
			/>
		<path class="st1" d="M253.2,68.7v0.5c1.3-1.1,2.8-1.9,4.3-2.4c1.6-0.6,3.2-0.8,5-0.8c0.8,0,1.6,0.1,2.5,0.2
			c0.9,0.1,1.7,0.3,2.5,0.6c0.8,0.3,1.4,0.6,1.9,1.1c0.5,0.5,0.7,1.1,0.7,1.9c0,0.4-0.1,0.8-0.2,1.1c-0.2,0.3-0.4,0.6-0.6,0.9
			c-0.2,0.3-0.5,0.5-0.9,0.6c-0.3,0.1-0.7,0.2-1.1,0.2c-0.3,0-0.7-0.1-1.2-0.3c-1.1-0.4-2.3-0.7-3.6-0.7c-1.3,0-2.5,0.2-3.6,0.7
			c-1.1,0.5-2.1,1.1-3,2c-0.8,0.8-1.5,1.8-2,3c-0.5,1.1-0.7,2.3-0.7,3.6v12.1c0,0.8-0.3,1.4-0.8,1.9c-0.5,0.5-1.2,0.8-1.9,0.8
			c-0.8,0-1.4-0.3-2-0.8c-0.5-0.5-0.8-1.2-0.8-1.9V68.7c0-0.8,0.3-1.4,0.8-1.9c0.5-0.5,1.2-0.8,2-0.8c0.8,0,1.4,0.3,1.9,0.8
			C253,67.3,253.2,68,253.2,68.7z"/>
		<path class="st1" d="M300.9,80.8c0,4.1-1.5,7.6-4.3,10.5c-2.9,2.9-6.4,4.3-10.5,4.3c-4.1,0-7.6-1.5-10.5-4.3
			c-2.9-2.9-4.3-6.4-4.3-10.5c0-4.1,1.4-7.6,4.3-10.5c2.9-2.9,6.4-4.3,10.5-4.3c4.1,0,7.6,1.4,10.5,4.3c1.4,1.5,2.5,3,3.2,4.8
			C300.5,76.9,300.9,78.8,300.9,80.8z M286.1,71.5c-1.3,0-2.5,0.2-3.7,0.7c-1.1,0.5-2.1,1.2-2.9,2c-0.8,0.8-1.5,1.8-2,3
			c-0.5,1.1-0.7,2.3-0.7,3.6s0.2,2.5,0.7,3.6c0.5,1.1,1.1,2.1,2,3c0.8,0.8,1.8,1.5,2.9,2c1.1,0.5,2.4,0.7,3.7,0.7
			c1.3,0,2.5-0.2,3.6-0.7c1.1-0.5,2.1-1.2,3-2c0.8-0.8,1.5-1.8,2-3c0.5-1.1,0.7-2.3,0.7-3.6s-0.2-2.5-0.7-3.6c-0.5-1.1-1.2-2.1-2-3
			c-0.8-0.9-1.8-1.5-3-2C288.6,71.8,287.4,71.5,286.1,71.5z"/>
		<path class="st1" d="M320.5,95.7c-3.6,0-6.7-1.1-9.3-3.3v13.2c0,0.8-0.3,1.5-0.8,2c-0.5,0.5-1.2,0.8-2,0.8c-0.8,0-1.5-0.3-2-0.8
			c-0.5-0.5-0.8-1.2-0.8-2V80.8c0-4.1,1.4-7.6,4.3-10.5c2.9-2.9,6.4-4.3,10.5-4.3c4.1,0,7.6,1.4,10.5,4.3c1.4,1.4,2.5,3,3.3,4.8
			c0.7,1.8,1.1,3.7,1.1,5.7c0,4.1-1.4,7.6-4.4,10.5c-1.5,1.5-3.1,2.6-4.8,3.3C324.4,95.3,322.5,95.7,320.5,95.7z M311.2,80.8
			c0,1.3,0.2,2.5,0.7,3.6c0.5,1.1,1.1,2.1,2,3c0.8,0.8,1.8,1.5,2.9,2c1.1,0.5,2.4,0.7,3.7,0.7c1.3,0,2.5-0.2,3.6-0.7
			c1.1-0.5,2.1-1.2,3-2c0.8-0.8,1.5-1.8,2-3c0.5-1.1,0.7-2.3,0.7-3.6s-0.2-2.5-0.7-3.6c-0.5-1.1-1.1-2.1-2-3c-0.8-0.9-1.8-1.5-3-2
			c-1.1-0.5-2.3-0.7-3.6-0.7c-1.3,0-2.5,0.2-3.7,0.7c-1.1,0.5-2.1,1.2-2.9,2c-0.8,0.8-1.5,1.8-2,3C311.4,78.4,311.2,79.6,311.2,80.8
			z"/>
		<path class="st1" d="M362.7,87.3c0.8,0,1.5,0.3,2,0.8c0.5,0.5,0.8,1.2,0.8,2c0,0.8-0.3,1.4-0.8,2c-2.7,2.4-6,3.6-9.7,3.6
			c-4.1,0-7.6-1.5-10.5-4.3c-2.9-2.9-4.3-6.4-4.3-10.5c0-4.1,1.4-7.6,4.3-10.5c2.9-2.9,6.4-4.3,10.5-4.3c4.1,0,7.6,1.4,10.5,4.3
			c1.5,1.4,2.5,3,3.3,4.8c0.7,1.8,1.1,3.7,1.1,5.7c0,0.8-0.3,1.5-0.8,2c-0.5,0.5-1.2,0.8-2,0.8h-21c0.3,1,0.7,1.9,1.3,2.7
			c0.6,0.8,1.3,1.5,2.1,2.1c0.8,0.6,1.7,1,2.6,1.3c0.9,0.3,1.9,0.5,3,0.5c1.2,0,2.2-0.2,3.2-0.5c1-0.4,1.9-0.9,2.7-1.6
			C361.4,87.6,362,87.4,362.7,87.3z M363.8,78.1c-0.3-1-0.7-1.9-1.3-2.7c-0.6-0.8-1.3-1.5-2.1-2.1c-0.8-0.6-1.7-1-2.6-1.3
			c-0.9-0.3-1.9-0.5-2.9-0.5c-1,0-2,0.2-2.9,0.5c-1,0.3-1.8,0.8-2.6,1.3c-0.8,0.6-1.5,1.3-2.1,2.1c-0.6,0.8-1,1.7-1.3,2.7H363.8z"/>
		<path class="st1" d="M380.2,68.7v0.5c1.3-1.1,2.8-1.9,4.3-2.4c1.6-0.6,3.2-0.8,5-0.8c0.8,0,1.6,0.1,2.5,0.2
			c0.9,0.1,1.7,0.3,2.5,0.6c0.8,0.3,1.4,0.6,1.9,1.1c0.5,0.5,0.7,1.1,0.7,1.9c0,0.4-0.1,0.8-0.2,1.1c-0.2,0.3-0.3,0.6-0.6,0.9
			c-0.3,0.3-0.5,0.5-0.9,0.6c-0.3,0.1-0.7,0.2-1.1,0.2c-0.3,0-0.7-0.1-1.2-0.3c-1.1-0.4-2.3-0.7-3.6-0.7c-1.3,0-2.5,0.2-3.6,0.7
			c-1.1,0.5-2.1,1.1-3,2c-0.8,0.8-1.5,1.8-2,3c-0.5,1.1-0.7,2.3-0.7,3.6v12.1c0,0.8-0.3,1.4-0.8,1.9c-0.5,0.5-1.2,0.8-1.9,0.8
			c-0.8,0-1.4-0.3-2-0.8c-0.5-0.5-0.8-1.2-0.8-1.9V68.7c0-0.8,0.3-1.4,0.8-1.9c0.5-0.5,1.2-0.8,2-0.8c0.8,0,1.4,0.3,1.9,0.8
			C379.9,67.3,380.2,68,380.2,68.7z"/>
		<path class="st1" d="M403.9,66.4h3.1V55.9c0-0.8,0.3-1.4,0.8-1.9c0.5-0.5,1.2-0.8,2-0.8c0.8,0,1.4,0.3,2,0.8
			c0.5,0.5,0.8,1.2,0.8,1.9v10.5h5.1c0.8,0,1.4,0.3,1.9,0.8c0.5,0.5,0.8,1.2,0.8,1.9c0,0.8-0.3,1.4-0.8,2c-0.5,0.5-1.2,0.8-1.9,0.8
			h-5.1v12.9c0,3.5,1.8,5.3,5.3,5.3c0.8,0,1.4,0.3,1.9,0.8c0.5,0.5,0.8,1.2,0.8,1.9c0,0.8-0.3,1.4-0.8,2c-0.5,0.5-1.2,0.8-1.9,0.8
			c-7.2,0-10.8-3.6-10.8-10.8V72h-3.1c-0.7,0-1.4-0.3-1.9-0.8c-0.5-0.5-0.8-1.2-0.8-2c0-0.8,0.3-1.4,0.8-1.9
			C402.5,66.7,403.2,66.4,403.9,66.4z"/>
		<path class="st1" d="M434.3,92.9L424.8,70c-0.2-0.4-0.3-0.8-0.3-1.2c0-0.4,0.1-0.7,0.2-1.1c0.1-0.3,0.3-0.6,0.6-0.9
			c0.2-0.3,0.5-0.5,0.9-0.6c0.3-0.1,0.7-0.2,1.1-0.2c0.5,0,1.1,0.2,1.5,0.5c0.5,0.3,0.8,0.8,1.1,1.4l7.4,17.8l7.5-17.8
			c0.2-0.5,0.5-1,0.9-1.3c0.4-0.3,1-0.5,1.7-0.5c0.4,0,0.7,0.1,1.1,0.2c0.3,0.1,0.6,0.3,0.9,0.6c0.3,0.3,0.4,0.6,0.6,0.9
			c0.2,0.3,0.2,0.7,0.2,1.1c0,0.4-0.1,0.8-0.3,1.2l-15.2,36.6c-0.2,0.5-0.6,1-1.1,1.3c-0.5,0.3-1,0.5-1.6,0.5c-0.8,0-1.5-0.3-2-0.8
			c-0.5-0.5-0.8-1.2-0.8-2c0-0.4,0.1-0.8,0.3-1.2L434.3,92.9z"/>
		<path class="st1" d="M496.9,92.9c0,0.8-0.3,1.4-0.8,2c-0.5,0.5-1.2,0.8-1.9,0.8c-0.8,0-1.4-0.3-2-0.8c-0.5-0.5-0.8-1.2-0.8-2V77.8
			c0-0.8-0.2-1.7-0.5-2.4c-0.3-0.8-0.8-1.4-1.3-2c-0.6-0.6-1.2-1-2-1.4c-0.8-0.3-1.6-0.5-2.5-0.5c-0.9,0-1.7,0.2-2.4,0.5
			c-0.8,0.3-1.4,0.8-2,1.3c-0.6,0.6-1,1.2-1.4,2c-0.3,0.8-0.5,1.6-0.5,2.4v15.1c0,0.8-0.3,1.4-0.8,2c-0.5,0.5-1.2,0.8-1.9,0.8
			c-0.8,0-1.4-0.3-2-0.8c-0.5-0.5-0.8-1.2-0.8-2V77.8c0-0.9-0.2-1.7-0.5-2.4c-0.3-0.8-0.8-1.4-1.4-2c-0.6-0.6-1.2-1-2-1.3
			c-0.8-0.3-1.6-0.5-2.4-0.5c-0.9,0-1.7,0.2-2.4,0.5c-0.8,0.3-1.4,0.8-2,1.4c-0.6,0.6-1,1.2-1.3,2c-0.3,0.8-0.5,1.6-0.5,2.4v15.1
			c0,0.8-0.3,1.4-0.8,2c-0.5,0.5-1.2,0.8-2,0.8c-0.8,0-1.4-0.3-2-0.8c-0.5-0.5-0.8-1.2-0.8-2V68.7c0-0.8,0.3-1.4,0.8-1.9
			c0.5-0.5,1.2-0.8,1.9-0.8c0.6,0,1.2,0.2,1.6,0.5c0.5,0.3,0.8,0.8,1,1.4c1.9-1.3,4-1.9,6.4-1.9c1.8,0,3.4,0.4,5,1
			c1.6,0.7,2.9,1.8,4.1,3.2c2.5-2.8,5.5-4.2,9-4.2c1.6,0,3.1,0.3,4.6,0.9c1.4,0.6,2.7,1.5,3.8,2.5c1.1,1.1,1.9,2.3,2.5,3.8
			c0.6,1.4,0.9,3,0.9,4.6V92.9z"/>
		<path class="st1" d="M543.5,68.7v0.5c1.3-1.1,2.8-1.9,4.3-2.4c1.6-0.6,3.2-0.8,5-0.8c0.8,0,1.6,0.1,2.5,0.2
			c0.9,0.1,1.7,0.3,2.5,0.6c0.7,0.3,1.4,0.7,1.9,1.1c0.5,0.5,0.7,1.1,0.7,1.9c0,0.4-0.1,0.7-0.2,1.1c-0.2,0.3-0.4,0.6-0.6,0.9
			c-0.2,0.3-0.5,0.5-0.9,0.6c-0.3,0.1-0.7,0.2-1.1,0.2c-0.3,0-0.7-0.1-1.2-0.3c-1.1-0.4-2.3-0.7-3.6-0.7c-1.3,0-2.5,0.2-3.6,0.7
			c-1.1,0.5-2.1,1.1-3,2c-0.8,0.8-1.5,1.8-2,3c-0.5,1.1-0.7,2.3-0.7,3.6v12.1c0,0.8-0.3,1.4-0.8,1.9c-0.5,0.5-1.2,0.8-1.9,0.8
			c-0.8,0-1.4-0.3-2-0.8c-0.5-0.5-0.8-1.2-0.8-1.9V68.7c0-0.8,0.3-1.4,0.8-1.9c0.5-0.5,1.2-0.8,2-0.8c0.8,0,1.4,0.3,1.9,0.8
			C543.2,67.3,543.5,68,543.5,68.7z"/>
		<path class="st1" d="M588.6,90.9L577,77.8l7.8-7.2c0.6-0.6,0.8-1.4,0.7-2.3c-0.1-0.4-0.2-0.7-0.4-1c-0.2-0.3-0.4-0.6-0.7-0.8
			c-0.3-0.2-0.6-0.4-1-0.4c-0.4-0.1-0.7-0.1-1.1,0c-0.5,0.1-1,0.3-1.4,0.7L570.8,76V56c0-0.8-0.3-1.4-0.8-2
			c-0.5-0.5-1.2-0.8-1.9-0.8c-0.8,0-1.4,0.3-2,0.8c-0.5,0.5-0.8,1.2-0.8,2v36.9c0,0.8,0.3,1.4,0.8,2c0.5,0.5,1.2,0.8,2,0.8
			c0.8,0,1.4-0.3,1.9-0.8c0.5-0.6,0.8-1.2,0.8-2v-9.3l0.2-0.2l1.9-1.8l11.8,13.3c0.5,0.5,1.1,0.7,1.9,0.7c0.4,0,0.8-0.1,1.1-0.2
			c0.3-0.1,0.6-0.3,0.9-0.6c0.2-0.3,0.4-0.6,0.6-0.9c0.1-0.3,0.2-0.7,0.2-1.1C589.4,92.1,589.1,91.5,588.6,90.9z"/>
		<path class="st1" d="M531.6,68.8c0-0.8-0.3-1.4-0.8-2c-0.5-0.5-1.2-0.8-2-0.8c-0.8,0-1.4,0.3-2,0.8c-0.5,0.5-0.8,1.2-0.8,2v0.5
			c-0.2-0.1-0.3-0.3-0.5-0.4c-0.8-0.6-1.7-1.2-2.6-1.6c0,0,0,0,0,0c-0.3-0.1-0.6-0.3-1-0.4c-0.1,0-0.1-0.1-0.2-0.1l0,0
			c-1.6-0.6-3.2-0.8-5-0.8c-4.1,0-7.6,1.5-10.5,4.4c-2.9,2.9-4.4,6.4-4.4,10.5c0,4.1,1.5,7.6,4.4,10.5c2.9,2.9,6.4,4.4,10.5,4.4
			c1.8,0,3.4-0.3,5-0.9c1.6-0.6,3-1.4,4.3-2.4V93c0,0.8,0.3,1.4,0.8,2c0.5,0.5,1.2,0.8,2,0.8c0.8,0,1.4-0.3,2-0.8
			c0.5-0.5,0.8-1.2,0.8-2V80.9c0,0,0,0,0,0l0,0V68.8z M525.3,84.5c-0.5,1.1-1.2,2.1-2,3c-0.8,0.9-1.8,1.5-3,2
			c-1.1,0.5-2.3,0.7-3.6,0.7c-1.3,0-2.5-0.2-3.7-0.7c-1.1-0.5-2.1-1.2-3-2c-0.8-0.8-1.5-1.8-2-3c-0.5-1.1-0.7-2.3-0.7-3.6
			c0-1.3,0.2-2.5,0.7-3.6c0.5-1.1,1.1-2.1,2-3c0.8-0.8,1.8-1.5,3-2c1.1-0.5,2.4-0.7,3.7-0.7c1.3,0,2.5,0.3,3.6,0.7
			c1.1,0.5,2.1,1.2,3,2c0.8,0.9,1.5,1.8,2,3c0.5,1.1,0.7,2.3,0.7,3.6C526.1,82.2,525.8,83.4,525.3,84.5z"/>
	</g>
</g>
</svg>
